<?xml version="1.0" encoding="utf-8"?>
<!-- Generator: Adobe Illustrator 25.0.1, SVG Export Plug-In . SVG Version: 6.00 Build 0)  -->
<svg version="1.1" id="Layer_1" xmlns="http://www.w3.org/2000/svg" xmlns:xlink="http://www.w3.org/1999/xlink" x="0px" y="0px"
	 viewBox="0 0 541.3 101.8" style="enable-background:new 0 0 541.3 101.8;" xml:space="preserve">
<g>
	<path d="M1.2,56.6v-6.1c0-14.6,10.3-22,22.2-22c9.1,0,17.5,4.6,20.6,13.8L34.4,46c-1.9-5.5-5.9-8.1-11-8.1c-6.4,0-11.9,4.2-11.9,13
		v5.4c0,8.7,5.5,13,11.9,13c5,0,9-2.6,11-8.1l9.7,3.5c-3.2,9.3-11.6,14-20.7,14C11.5,78.7,1.2,71.2,1.2,56.6z"/>
	<path d="M95.6,48.5v29H85.3V49c0-8.4-4.4-11.4-10.6-11.4c-6,0-11,4-11,10.8v29.1H53.4V12.2h10.3v23.2c2.9-4.1,7.7-6.9,13.8-6.9
		C87.6,28.5,95.6,36.2,95.6,48.5z"/>
	<path d="M145.3,47v30.5h-9.4l-0.5-6.1c-2.6,4.6-7.2,7.3-13.3,7.3h-3c-8.6,0-15.2-6.3-15.2-15.4c0-8.5,6.2-14.7,17.8-14.7h13.5v-1.2
		c0-5.4-3.3-9.5-10.2-9.5c-4.7,0-8.1,2.2-10.2,5.9l-9.2-3.9c3.6-6.6,11-11.4,20.1-11.4C136.8,28.5,145.3,35.3,145.3,47z M124.1,69.3
		c5.3,0,10.2-3,11-8.2v-3.7h-13.2c-5.2,0-7.9,2.3-7.9,5.9c0,3.7,2.9,5.9,7.2,5.9L124.1,69.3L124.1,69.3z"/>
	<path d="M153.9,56.6v-6.1c0-14.6,10.3-22,22.2-22c9.1,0,17.5,4.6,20.6,13.8l-9.7,3.6c-1.9-5.5-5.9-8.1-11-8.1
		c-6.4,0-11.9,4.2-11.9,13v5.4c0,8.7,5.5,13,11.9,13c5,0,9-2.6,11-8.1l9.7,3.5c-3.1,9.2-11.5,13.9-20.6,13.9
		C164.2,78.7,153.9,71.2,153.9,56.6z"/>
	<path d="M248.3,48.5v29H238V49c0-8.4-4.4-11.4-10.6-11.4c-6,0-11,4-11,10.8v29.1h-10.3V12.2h10.3v23.2c2.9-4.1,7.7-6.9,13.8-6.9
		C240.3,28.5,248.3,36.2,248.3,48.5z"/>
	<path d="M298,47v30.5h-9.4l-0.5-6.1c-2.6,4.6-7.2,7.3-13.3,7.3h-3c-8.6,0-15.2-6.3-15.2-15.4c0-8.5,6.2-14.7,17.8-14.7h13.5v-1.2
		c0-5.4-3.3-9.5-10.2-9.5c-4.7,0-8.1,2.2-10.2,5.9l-9.2-3.9c3.6-6.6,11-11.4,20.1-11.4C289.5,28.5,298,35.3,298,47z M276.8,69.3
		c5.3,0,10.2-3,11-8.2v-3.7h-13.2c-5.2,0-7.9,2.3-7.9,5.9c0,3.7,2.9,5.9,7.2,5.9L276.8,69.3L276.8,69.3z"/>
	<path d="M336.5,29.6l-2.5,9.3c-1.8-0.6-3.8-1-5.5-1c-4.8,0-9.6,3.4-9.6,10.6v29h-10.3V29.7h9.6l0.5,6.4c2.3-4.6,6.2-7.6,11.7-7.6
		C332.4,28.5,334.9,28.9,336.5,29.6z"/>
	<path d="M410.1,48.6v28.9h-10.3v-29c0-7.8-3.9-10.7-9-10.7c-5,0-9,3.8-9,10.6v0.2v28.9h-10v-29c0-8-3.9-10.8-9-10.8s-9,3.2-9,10.7
		v29h-10.3V29.7h9.6l0.5,5.8c2.5-4.1,6.6-7,12.3-7c6.1,0,10.9,3.1,13.5,8.7c2.7-5,7.8-8.7,14.5-8.7
		C403.4,28.5,410.1,36.2,410.1,48.6z"/>
	<path d="M420.8,15.6c0-3.4,2.7-6.1,6.1-6.1s6.1,2.7,6.1,6.1s-2.7,6.1-6.1,6.1S420.8,19,420.8,15.6z M421.7,77.5V29.7H432v47.8
		H421.7z"/>
	<path d="M486.9,48.6v28.9h-10.3V49.1c0-8.1-4.4-11.2-10.6-11.2c-6,0-11,4-11,10.6v29h-10.3V29.7h9.6l0.5,6.1
		c2.8-4.4,7.8-7.3,14.1-7.3C478.9,28.5,486.9,36.2,486.9,48.6z"/>
	<path d="M530.5,29.7h9.6v41.2c0,14.6-10.3,21.4-22.4,21.4c-9.3,0-17.4-3.1-20.8-9.8l10.6-4.1c1.7,3.5,5.7,5.4,10.2,5.4
		c7.7,0,12.1-4.6,12.1-13.3v-2.6c-3.7,4.3-9.1,6.7-14.9,6.7c-9.5,0-19.4-8-19.4-20.8v-4.3c0-13,9.8-20.9,19.4-20.9
		c5.9,0,11.4,2.5,15.1,7L530.5,29.7z M529.8,53.3v-3.7c0-7.8-5.4-12.2-11.9-12.2c-6.6,0-12,4.4-12,12.2v3.7c0,7.8,5.4,12.2,12,12.2
		C524.4,65.6,529.8,61.2,529.8,53.3z"/>
</g>
</svg>
